{
    "asset" : {
        "generator" : "Khronos glTF Blender I/O v3.3.32",
        "version" : "2.0"
    },
    "scene" : 0,
    "scenes" : [
        {
            "name" : "Scene",
            "nodes" : [
                0,
                1,
                2,
                3,
                4
            ]
        }
    ],
    "nodes" : [
        {
            "mesh" : 0,
            "name" : "Motor_Bracket_Mini_Version_mod",
            "translation" : [
                102.70796966552734,
                45.15092849731445,
                -23.973649978637695
            ]
        },
        {
            "mesh" : 1,
            "name" : "Pinion_Gear_Mini_Version",
            "rotation" : [
                0,
                -0.9950470328330994,
                0,
                0.09940531104803085
            ],
            "translation" : [
                89.4946060180664,
                103.23578643798828,
                -14.201278686523438
            ]
        },
        {
            "mesh" : 2,
            "name" : "Pusher_150mm_Long_mod",
            "translation" : [
                68.26060485839844,
                97.14441680908203,
                -10.263738632202148
            ]
        },
        {
            "mesh" : 3,
            "name" : "SG90 - Micro Servo 9g - Tower Pro",
            "rotation" : [
                0.7071068286895752,
                0,
                0,
                0.7071068286895752
            ],
            "translation" : [
                87.8791732788086,
                67.35250854492188,
                -41.729339599609375
            ]
        },
        {
            "mesh" : 4,
            "name" : "Water_Bottle",
            "rotation" : [
                0,
                0,
                1,
                4.371138828673793e-08
            ],
            "translation" : [
                279.34478759765625,
                430.1475830078125,
                -7.54680871963501
            ]
        }
    ],
    "animations" : [
        {
            "channels" : [
                {
                    "sampler" : 0,
                    "target" : {
                        "node" : 1,
                        "path" : "rotation"
                    }
                },
                {
                    "sampler" : 1,
                    "target" : {
                        "node" : 1,
                        "path" : "translation"
                    }
                },
                {
                    "sampler" : 2,
                    "target" : {
                        "node" : 1,
                        "path" : "scale"
                    }
                }
            ],
            "name" : "GearOpen",
            "samplers" : [
                {
                    "input" : 15,
                    "interpolation" : "LINEAR",
                    "output" : 16
                },
                {
                    "input" : 17,
                    "interpolation" : "STEP",
                    "output" : 18
                },
                {
                    "input" : 17,
                    "interpolation" : "STEP",
                    "output" : 19
                }
            ]
        },
        {
            "channels" : [
                {
                    "sampler" : 0,
                    "target" : {
                        "node" : 2,
                        "path" : "translation"
                    }
                },
                {
                    "sampler" : 1,
                    "target" : {
                        "node" : 2,
                        "path" : "rotation"
                    }
                },
                {
                    "sampler" : 2,
                    "target" : {
                        "node" : 2,
                        "path" : "scale"
                    }
                }
            ],
            "name" : "PusherOpen",
            "samplers" : [
                {
                    "input" : 15,
                    "interpolation" : "LINEAR",
                    "output" : 20
                },
                {
                    "input" : 17,
                    "interpolation" : "STEP",
                    "output" : 21
                },
                {
                    "input" : 17,
                    "interpolation" : "STEP",
                    "output" : 22
                }
            ]
        },
        {
            "channels" : [
                {
                    "sampler" : 0,
                    "target" : {
                        "node" : 2,
                        "path" : "translation"
                    }
                },
                {
                    "sampler" : 1,
                    "target" : {
                        "node" : 2,
                        "path" : "rotation"
                    }
                },
                {
                    "sampler" : 2,
                    "target" : {
                        "node" : 2,
                        "path" : "scale"
                    }
                }
            ],
            "name" : "PusherOpen.001",
            "samplers" : [
                {
                    "input" : 23,
                    "interpolation" : "LINEAR",
                    "output" : 24
                },
                {
                    "input" : 17,
                    "interpolation" : "STEP",
                    "output" : 25
                },
                {
                    "input" : 17,
                    "interpolation" : "STEP",
                    "output" : 26
                }
            ]
        }
    ],
    "materials" : [
        {
            "doubleSided" : true,
            "name" : "Material.003",
            "pbrMetallicRoughness" : {
                "baseColorFactor" : [
                    0.008075754158198833,
                    0.008075754158198833,
                    0.008075754158198833,
                    1
                ],
                "metallicFactor" : 0,
                "roughnessFactor" : 0.5
            }
        },
        {
            "doubleSided" : true,
            "name" : "Material.001",
            "pbrMetallicRoughness" : {}
        },
        {
            "doubleSided" : true,
            "name" : "Material",
            "pbrMetallicRoughness" : {}
        },
        {
            "doubleSided" : true,
            "name" : "Material.002",
            "pbrMetallicRoughness" : {
                "baseColorFactor" : [
                    0.09022141993045807,
                    0.3375357985496521,
                    0.8000000715255737,
                    1
                ],
                "metallicFactor" : 0,
                "roughnessFactor" : 0.5
            }
        }
    ],
    "meshes" : [
        {
            "name" : "Motor_Bracket_Mini_Version_mod",
            "primitives" : [
                {
                    "attributes" : {
                        "POSITION" : 0,
                        "NORMAL" : 1
                    },
                    "indices" : 2,
                    "material" : 0
                }
            ]
        },
        {
            "name" : "Pinion_Gear_Mini_Version",
            "primitives" : [
                {
                    "attributes" : {
                        "POSITION" : 3,
                        "NORMAL" : 4
                    },
                    "indices" : 5,
                    "material" : 1
                }
            ]
        },
        {
            "name" : "Pusher_150mm_Long_mod",
            "primitives" : [
                {
                    "attributes" : {
                        "POSITION" : 6,
                        "NORMAL" : 7
                    },
                    "indices" : 8,
                    "material" : 1
                }
            ]
        },
        {
            "name" : "SG90 - Micro Servo 9g - Tower Pro.001",
            "primitives" : [
                {
                    "attributes" : {
                        "POSITION" : 9,
                        "NORMAL" : 10
                    },
                    "indices" : 11,
                    "material" : 2
                }
            ]
        },
        {
            "name" : "Water_Bottle",
            "primitives" : [
                {
                    "attributes" : {
                        "POSITION" : 12,
                        "NORMAL" : 13
                    },
                    "indices" : 14,
                    "material" : 3
                }
            ]
        }
    ],
    "accessors" : [
        {
            "bufferView" : 0,
            "componentType" : 5126,
            "count" : 3449,
            "max" : [
                31.582015991210938,
                64.85098266601562,
                23.973649978637695
            ],
            "min" : [
                -23.877967834472656,
                -45.15092849731445,
                -36.34729766845703
            ],
            "type" : "VEC3"
        },
        {
            "bufferView" : 1,
            "componentType" : 5126,
            "count" : 3449,
            "type" : "VEC3"
        },
        {
            "bufferView" : 2,
            "componentType" : 5123,
            "count" : 4104,
            "type" : "SCALAR"
        },
        {
            "bufferView" : 3,
            "componentType" : 5126,
            "count" : 6874,
            "max" : [
                9.098760604858398,
                2.222062349319458,
                9.104002952575684
            ],
            "min" : [
                -9.109241485595703,
                -3.7469375133514404,
                -9.103997230529785
            ],
            "type" : "VEC3"
        },
        {
            "bufferView" : 4,
            "componentType" : 5126,
            "count" : 6874,
            "type" : "VEC3"
        },
        {
            "bufferView" : 5,
            "componentType" : 5123,
            "count" : 7926,
            "type" : "SCALAR"
        },
        {
            "bufferView" : 6,
            "componentType" : 5126,
            "count" : 16248,
            "max" : [
                153.00001525878906,
                16.524999618530273,
                0
            ],
            "min" : [
                0,
                0,
                -29.999000549316406
            ],
            "type" : "VEC3"
        },
        {
            "bufferView" : 7,
            "componentType" : 5126,
            "count" : 16248,
            "type" : "VEC3"
        },
        {
            "bufferView" : 8,
            "componentType" : 5123,
            "count" : 20235,
            "type" : "SCALAR"
        },
        {
            "bufferView" : 9,
            "componentType" : 5126,
            "count" : 87553,
            "max" : [
                22.972475051879883,
                33.98322677612305,
                -6.167757034301758
            ],
            "min" : [
                -9.625934600830078,
                21.583227157592773,
                -38.19716262817383
            ],
            "type" : "VEC3"
        },
        {
            "bufferView" : 10,
            "componentType" : 5126,
            "count" : 87553,
            "type" : "VEC3"
        },
        {
            "bufferView" : 11,
            "componentType" : 5125,
            "count" : 94899,
            "type" : "SCALAR"
        },
        {
            "bufferView" : 12,
            "componentType" : 5126,
            "count" : 8934,
            "max" : [
                118.29114532470703,
                316.03826904296875,
                27.063634872436523
            ],
            "min" : [
                27.216577529907227,
                0.33110636472702026,
                -64.01093292236328
            ],
            "type" : "VEC3"
        },
        {
            "bufferView" : 13,
            "componentType" : 5126,
            "count" : 8934,
            "type" : "VEC3"
        },
        {
            "bufferView" : 14,
            "componentType" : 5123,
            "count" : 9000,
            "type" : "SCALAR"
        },
        {
            "bufferView" : 15,
            "componentType" : 5126,
            "count" : 30,
            "max" : [
                1.25
            ],
            "min" : [
                0.041666666666666664
            ],
            "type" : "SCALAR"
        },
        {
            "bufferView" : 16,
            "componentType" : 5126,
            "count" : 30,
            "type" : "VEC4"
        },
        {
            "bufferView" : 17,
            "componentType" : 5126,
            "count" : 1,
            "max" : [
                1.25
            ],
            "min" : [
                1.25
            ],
            "type" : "SCALAR"
        },
        {
            "bufferView" : 18,
            "componentType" : 5126,
            "count" : 1,
            "type" : "VEC3"
        },
        {
            "bufferView" : 19,
            "componentType" : 5126,
            "count" : 1,
            "type" : "VEC3"
        },
        {
            "bufferView" : 20,
            "componentType" : 5126,
            "count" : 30,
            "type" : "VEC3"
        },
        {
            "bufferView" : 21,
            "componentType" : 5126,
            "count" : 1,
            "type" : "VEC4"
        },
        {
            "bufferView" : 22,
            "componentType" : 5126,
            "count" : 1,
            "type" : "VEC3"
        },
        {
            "bufferView" : 23,
            "componentType" : 5126,
            "count" : 60,
            "max" : [
                2.5
            ],
            "min" : [
                0.041666666666666664
            ],
            "type" : "SCALAR"
        },
        {
            "bufferView" : 24,
            "componentType" : 5126,
            "count" : 60,
            "type" : "VEC3"
        },
        {
            "bufferView" : 25,
            "componentType" : 5126,
            "count" : 1,
            "type" : "VEC4"
        },
        {
            "bufferView" : 26,
            "componentType" : 5126,
            "count" : 1,
            "type" : "VEC3"
        }
    ],
    "bufferViews" : [
        {
            "buffer" : 0,
            "byteLength" : 41388,
            "byteOffset" : 0,
            "target" : 34962
        },
        {
            "buffer" : 0,
            "byteLength" : 41388,
            "byteOffset" : 41388,
            "target" : 34962
        },
        {
            "buffer" : 0,
            "byteLength" : 8208,
            "byteOffset" : 82776,
            "target" : 34963
        },
        {
            "buffer" : 0,
            "byteLength" : 82488,
            "byteOffset" : 90984,
            "target" : 34962
        },
        {
            "buffer" : 0,
            "byteLength" : 82488,
            "byteOffset" : 173472,
            "target" : 34962
        },
        {
            "buffer" : 0,
            "byteLength" : 15852,
            "byteOffset" : 255960,
            "target" : 34963
        },
        {
            "buffer" : 0,
            "byteLength" : 194976,
            "byteOffset" : 271812,
            "target" : 34962
        },
        {
            "buffer" : 0,
            "byteLength" : 194976,
            "byteOffset" : 466788,
            "target" : 34962
        },
        {
            "buffer" : 0,
            "byteLength" : 40470,
            "byteOffset" : 661764,
            "target" : 34963
        },
        {
            "buffer" : 0,
            "byteLength" : 1050636,
            "byteOffset" : 702236,
            "target" : 34962
        },
        {
            "buffer" : 0,
            "byteLength" : 1050636,
            "byteOffset" : 1752872,
            "target" : 34962
        },
        {
            "buffer" : 0,
            "byteLength" : 379596,
            "byteOffset" : 2803508,
            "target" : 34963
        },
        {
            "buffer" : 0,
            "byteLength" : 107208,
            "byteOffset" : 3183104,
            "target" : 34962
        },
        {
            "buffer" : 0,
            "byteLength" : 107208,
            "byteOffset" : 3290312,
            "target" : 34962
        },
        {
            "buffer" : 0,
            "byteLength" : 18000,
            "byteOffset" : 3397520,
            "target" : 34963
        },
        {
            "buffer" : 0,
            "byteLength" : 120,
            "byteOffset" : 3415520
        },
        {
            "buffer" : 0,
            "byteLength" : 480,
            "byteOffset" : 3415640
        },
        {
            "buffer" : 0,
            "byteLength" : 4,
            "byteOffset" : 3416120
        },
        {
            "buffer" : 0,
            "byteLength" : 12,
            "byteOffset" : 3416124
        },
        {
            "buffer" : 0,
            "byteLength" : 12,
            "byteOffset" : 3416136
        },
        {
            "buffer" : 0,
            "byteLength" : 360,
            "byteOffset" : 3416148
        },
        {
            "buffer" : 0,
            "byteLength" : 16,
            "byteOffset" : 3416508
        },
        {
            "buffer" : 0,
            "byteLength" : 12,
            "byteOffset" : 3416524
        },
        {
            "buffer" : 0,
            "byteLength" : 240,
            "byteOffset" : 3416536
        },
        {
            "buffer" : 0,
            "byteLength" : 720,
            "byteOffset" : 3416776
        },
        {
            "buffer" : 0,
            "byteLength" : 16,
            "byteOffset" : 3417496
        },
        {
            "buffer" : 0,
            "byteLength" : 12,
            "byteOffset" : 3417512
        }
    ],
    "buffers" : [
        {
            "byteLength" : 3417524,
            "uri" : "DigitalTwin.bin"
        }
    ]
}
